# xmcd
#
# Track frame offsets:
#  150
#  17390
#  37270
#  56157
#  70330
#  97927
#  115474
#  132094
#  149084
#  164159
#  181383
#  198412
#  218627
#  233705
#
# Disc length: 3310 seconds
#
# Revision: 1
# Processed by: cddbd v1.5.1PL0 Copyright (c) Steve Scherf et al.
# Submitted via: Collectorz.com Music Collector 6.9
#
DISCID=d30cec0e
DTITLE=Various Artist - Sony Music Nashville: Fall Sampler 2002
DYEAR=2002
DGENRE=Country
TTITLE0=Travis Tritt - Strong Enough To Be Your Man
TTITLE1=Tammy Cochran - Life Happened
TTITLE2=Montgomery Gentry - My Town
TTITLE3=Brad Martin - Just Like Love
TTITLE4=Patty Loveless - You'll Never Leave Harlan Alive
TTITLE5=Michael Peterson - Modern Man
TTITLE6=Mark Chestnutt - I Want My Baby Back
TTITLE7=Little Big Town - Everything Changes
TTITLE8=Pam Tillis - So Wrong
TTITLE9=Charlie Robison - Don't Take Your Guns to Town
TTITLE10=Jack Ingram - Fool
TTITLE11=The Derailers - All the Rage in Paris
TTITLE12=Patty Loveless - Bluegrass, White Snow
TTITLE13=Cledus T. Judd - Stephon The Alternative Lifestyle Reindeer
EXTD=
EXTT0=
EXTT1=
EXTT2=
EXTT3=
EXTT4=
EXTT5=
EXTT6=
EXTT7=
EXTT8=
EXTT9=
EXTT10=
EXTT11=
EXTT12=
EXTT13=
PLAYORDER=
